<?xml version="1.0" encoding="UTF-8" standalone="no"?>
<!DOCTYPE svg PUBLIC "-//W3C//DTD SVG 1.1//EN"
 "http://www.w3.org/Graphics/SVG/1.1/DTD/svg11.dtd">
<!-- Generated by graphviz version 2.38.0 (20140413.2041)
 -->
<!-- Title: G Pages: 1 -->
<svg width="440pt" height="402pt"
 viewBox="0.00 0.00 440.48 402.00" xmlns="http://www.w3.org/2000/svg" xmlns:xlink="http://www.w3.org/1999/xlink">
<g id="graph0" class="graph" transform="scale(1 1) rotate(0) translate(4 398)">
<title>G</title>
<polygon fill="white" stroke="none" points="-4,4 -4,-398 436.478,-398 436.478,4 -4,4"/>
<g id="clust1" class="cluster"><title>cluster_Global</title>
<path fill="none" stroke="gray" d="M92.2388,-44C92.2388,-44 412.478,-44 412.478,-44 418.478,-44 424.478,-50 424.478,-56 424.478,-56 424.478,-374 424.478,-374 424.478,-380 418.478,-386 412.478,-386 412.478,-386 92.2388,-386 92.2388,-386 86.2388,-386 80.2388,-380 80.2388,-374 80.2388,-374 80.2388,-56 80.2388,-56 80.2388,-50 86.2388,-44 92.2388,-44"/>
<text text-anchor="middle" x="252.358" y="-373.2" font-family="Times,serif" font-size="11.00" fill="gray">Global</text>
</g>
<!-- \\User -->
<g id="node1" class="node"><title>\\User</title>
<polygon fill="none" stroke="black" points="397.978,-358 343.978,-358 343.978,-322 397.978,-322 397.978,-358"/>
<text text-anchor="middle" x="370.978" y="-337.2" font-family="Courier,monospace" font-size="11.00">User</text>
</g>
<!-- \\PotatoORM -->
<g id="node6" class="node"><title>\\PotatoORM</title>
<polygon fill="none" stroke="black" points="165.239,-304 88.2388,-304 88.2388,-268 165.239,-268 165.239,-304"/>
<text text-anchor="middle" x="126.739" y="-283.2" font-family="Courier,monospace" font-size="11.00">PotatoORM</text>
</g>
<!-- \\User&#45;&gt;\\PotatoORM -->
<g id="edge1" class="edge"><title>\\User&#45;&gt;\\PotatoORM</title>
<path fill="none" stroke="black" d="M343.593,-334.118C303.326,-325.142 225.92,-307.887 175.578,-296.664"/>
<polygon fill="none" stroke="black" points="176.101,-293.195 165.579,-294.435 174.578,-300.027 176.101,-293.195"/>
</g>
<!-- \\Bicycle -->
<g id="node2" class="node"><title>\\Bicycle</title>
<polygon fill="none" stroke="black" points="402.978,-304 338.978,-304 338.978,-268 402.978,-268 402.978,-304"/>
<text text-anchor="middle" x="370.978" y="-283.2" font-family="Courier,monospace" font-size="11.00">Bicycle</text>
</g>
<!-- \\Bicycle&#45;&gt;\\PotatoORM -->
<g id="edge2" class="edge"><title>\\Bicycle&#45;&gt;\\PotatoORM</title>
<path fill="none" stroke="black" d="M338.805,-286C297.495,-286 224.206,-286 175.79,-286"/>
<polygon fill="none" stroke="black" points="175.556,-282.5 165.556,-286 175.556,-289.5 175.556,-282.5"/>
</g>
<!-- \\CarTest -->
<g id="node3" class="node"><title>\\CarTest</title>
<polygon fill="none" stroke="black" points="402.978,-196 338.978,-196 338.978,-160 402.978,-160 402.978,-196"/>
<text text-anchor="middle" x="370.978" y="-175.2" font-family="Courier,monospace" font-size="11.00">CarTest</text>
</g>
<!-- \\PHPUnit_Framework_TestCase -->
<g id="node8" class="node"><title>\\PHPUnit_Framework_TestCase</title>
<ellipse fill="none" stroke="black" cx="126.739" cy="-18" rx="126.978" ry="18"/>
<text text-anchor="middle" x="126.739" y="-14.3" font-family="Times,serif" font-size="14.00" fill="gray">\PHPUnit_Framework_TestCase</text>
</g>
<!-- \\CarTest&#45;&gt;\\PHPUnit_Framework_TestCase -->
<g id="edge3" class="edge"><title>\\CarTest&#45;&gt;\\PHPUnit_Framework_TestCase</title>
<path fill="none" stroke="black" d="M338.971,-161.706C334.182,-158.497 329.498,-154.902 325.478,-151 283.277,-110.05 302.525,-72.4362 253.478,-40 249.141,-37.1321 244.543,-34.605 239.768,-32.3804"/>
<polygon fill="none" stroke="black" points="240.967,-29.0881 230.39,-28.4652 238.27,-35.5477 240.967,-29.0881"/>
</g>
<!-- \\Car -->
<g id="node4" class="node"><title>\\Car</title>
<polygon fill="none" stroke="black" points="397.978,-250 343.978,-250 343.978,-214 397.978,-214 397.978,-250"/>
<text text-anchor="middle" x="370.978" y="-229.2" font-family="Courier,monospace" font-size="11.00">Car</text>
</g>
<!-- \\Car&#45;&gt;\\PotatoORM -->
<g id="edge4" class="edge"><title>\\Car&#45;&gt;\\PotatoORM</title>
<path fill="none" stroke="black" d="M343.593,-237.882C303.326,-246.858 225.92,-264.113 175.578,-275.336"/>
<polygon fill="none" stroke="black" points="174.578,-271.973 165.579,-277.565 176.101,-278.805 174.578,-271.973"/>
</g>
<!-- \\BicycleTest -->
<g id="node5" class="node"><title>\\BicycleTest</title>
<polygon fill="none" stroke="black" points="416.478,-142 325.478,-142 325.478,-106 416.478,-106 416.478,-142"/>
<text text-anchor="middle" x="370.978" y="-121.2" font-family="Courier,monospace" font-size="11.00">BicycleTest</text>
</g>
<!-- \\BicycleTest&#45;&gt;\\PHPUnit_Framework_TestCase -->
<g id="edge5" class="edge"><title>\\BicycleTest&#45;&gt;\\PHPUnit_Framework_TestCase</title>
<path fill="none" stroke="black" d="M339.018,-105.899C334.419,-103.014 329.781,-99.9918 325.478,-97 291.966,-73.7027 290.721,-56.6954 253.478,-40 247.16,-37.1678 240.511,-34.6992 233.707,-32.5477"/>
<polygon fill="none" stroke="black" points="234.226,-29.0536 223.646,-29.6169 232.268,-35.7742 234.226,-29.0536"/>
</g>
<!-- \\UserTest -->
<g id="node7" class="node"><title>\\UserTest</title>
<polygon fill="none" stroke="black" points="406.478,-88 335.478,-88 335.478,-52 406.478,-52 406.478,-88"/>
<text text-anchor="middle" x="370.978" y="-67.2" font-family="Courier,monospace" font-size="11.00">UserTest</text>
</g>
<!-- \\UserTest&#45;&gt;\\PHPUnit_Framework_TestCase -->
<g id="edge6" class="edge"><title>\\UserTest&#45;&gt;\\PHPUnit_Framework_TestCase</title>
<path fill="none" stroke="black" d="M335.228,-60.2863C312.157,-54.0267 281.14,-45.972 253.478,-40 242.946,-37.7264 231.88,-35.5229 220.861,-33.4448"/>
<polygon fill="none" stroke="black" points="221.244,-29.9561 210.773,-31.5733 219.967,-36.8387 221.244,-29.9561"/>
</g>
</g>
</svg>
